<svg xmlns="http://www.w3.org/2000/svg" width="161.59mm" height="57.76mm" viewBox="0 0 458.04 163.74">
  <defs>
    <style>
      .a {
        fill: #fff;
      }

      .b {
        fill: #bc4f45;
      }

      .c {
        fill: #51589e;
      }
    </style>
  </defs>
  <title>Logo LocasBeatz</title>
  <g>
    <path class="a" d="M251.47,119.74H208.83a15.13,15.13,0,0,1-15.13-15.13V58.33A33.7,33.7,0,0,1,199,40.16L203,34H193.7V17.67L183.7,0V104.61a25.13,25.13,0,0,0,25.13,25.13h48.3Z"/>
    <path class="a" d="M251.24,34H203l5.66,10h42.63a15.12,15.12,0,0,1,15.13,15.13v46.29a33.73,33.73,0,0,1-5.31,18.17l-3.93,6.15h9.24v16.33l10,17.67V59.13A25.13,25.13,0,0,0,251.24,34Z"/>
    <path class="a" d="M203.6,97.83h52.72a0,0,0,0,1,0,0v4.32a7.6,7.6,0,0,1-7.6,7.6H211.2a7.6,7.6,0,0,1-7.6-7.6V97.83A0,0,0,0,1,203.6,97.83Z"/>
    <path class="a" d="M213.84,82a16.21,16.21,0,0,1,1.21-6.12H203.6V87.83h11.33A16.16,16.16,0,0,1,213.84,82Z"/>
    <path class="a" d="M244.87,75.91A16,16,0,0,1,245,87.83h11.33V75.91Z"/>
    <path class="a" d="M211.2,54h37.52a7.6,7.6,0,0,1,7.6,7.6v4.32a0,0,0,0,1,0,0H203.6a0,0,0,0,1,0,0V61.6A7.6,7.6,0,0,1,211.2,54Z"/>
    <path class="b" d="M223.8,82.3a6.16,6.16,0,0,1,10.92-4.19l5.76-2.22A12.18,12.18,0,0,0,218,84.51Z"/>
    <path class="c" d="M236.12,81.77A6.16,6.16,0,0,1,225.21,86l-5.77,2.21a12.18,12.18,0,0,0,22.45-8.61Z"/>
    <g>
      <path class="a" d="M23.35,93v7.29a1.28,1.28,0,0,1-1.29,1.29H1.29a1.18,1.18,0,0,1-.94-.38,1.28,1.28,0,0,1-.35-.91V63.62a1.29,1.29,0,0,1,.35-.91,1.21,1.21,0,0,1,.94-.38H9.34a1.25,1.25,0,0,1,.91.38,1.23,1.23,0,0,1,.37.91V90.45a1.29,1.29,0,0,0,.35.91,1.24,1.24,0,0,0,.94.38H22.06A1.26,1.26,0,0,1,23.35,93Z"/>
      <path class="a" d="M23.14,82a19.47,19.47,0,0,1,1.61-7.89,21,21,0,0,1,4.34-6.46,20.64,20.64,0,0,1,6.44-4.38,20.14,20.14,0,0,1,15.78,0A20.71,20.71,0,0,1,62.15,74.08a20.14,20.14,0,0,1,0,15.78A20.62,20.62,0,0,1,51.31,100.7a20.14,20.14,0,0,1-15.78,0,20.45,20.45,0,0,1-6.44-4.37,21.08,21.08,0,0,1-4.34-6.47A19.47,19.47,0,0,1,23.14,82Zm10.62,0a10.11,10.11,0,0,0,.75,3.87,10.41,10.41,0,0,0,2.07,3.21,9.94,9.94,0,0,0,3.08,2.23,8.93,8.93,0,0,0,7.52,0,10.43,10.43,0,0,0,3.11-2.23,10.29,10.29,0,0,0,2.09-3.21,10.26,10.26,0,0,0,0-7.7,9.79,9.79,0,0,0-2.09-3.22,10.52,10.52,0,0,0-3.11-2.2,8.84,8.84,0,0,0-7.52,0,10,10,0,0,0-3.08,2.2,9.9,9.9,0,0,0-2.07,3.22A10.09,10.09,0,0,0,33.76,82Z"/>
      <path class="a" d="M121.17,63.74a2,2,0,0,1,.73-.83,1.92,1.92,0,0,1,1.1-.35h7.51a1.88,1.88,0,0,1,1.05.35,2.09,2.09,0,0,1,.72.83L148,100.23a1.13,1.13,0,0,1-.08,1,1.2,1.2,0,0,1-1.16.54h-9.17a1.92,1.92,0,0,1-1.1-.35,2.46,2.46,0,0,1-.78-.83l-1.45-3.22a2.46,2.46,0,0,0-.78-.83,1.78,1.78,0,0,0-1-.35H121.06a1.87,1.87,0,0,0-1.1.35,2,2,0,0,0-.72.83l-1.5,3.22a2,2,0,0,1-.73.83,1.85,1.85,0,0,1-1,.35h-9.23a1.74,1.74,0,0,1-.57-.11,1.23,1.23,0,0,1-.48-.32,1.12,1.12,0,0,1-.24-.54,1.25,1.25,0,0,1,.16-.75Zm3.17,23.35h4.77a.89.89,0,0,0,.78-.35.74.74,0,0,0,0-.83c-.35-.9-.78-1.94-1.28-3.14l-1.4-3.36q-.21-.48-.48-.48t-.48.48l-2.69,6.5a.87.87,0,0,0,0,.83A.88.88,0,0,0,124.34,87.09Z"/>
      <path class="a" d="M175.06,84.25a12.05,12.05,0,0,0-3.38-3.7,15.59,15.59,0,0,0-4.32-2.15,39.94,39.94,0,0,0-4.24-1.1c-.25,0-.82-.13-1.71-.29a26.73,26.73,0,0,1-2.79-.67,14.76,14.76,0,0,1-2.58-1c-.75-.4-1.13-.84-1.13-1.34a1.52,1.52,0,0,1,.46-1.18,2.56,2.56,0,0,1,1.15-.62A6.44,6.44,0,0,1,158,72l1.37,0a15,15,0,0,1,4.34.72,21.66,21.66,0,0,1,5.1,2.44,1.16,1.16,0,0,0,1,.22,1.39,1.39,0,0,0,.86-.54l4.18-6a1.31,1.31,0,0,0,.27-1,1.39,1.39,0,0,0-.48-.91,26.13,26.13,0,0,0-6.85-3.84,23.12,23.12,0,0,0-8.07-1.31,25.92,25.92,0,0,0-5.31.56,14.68,14.68,0,0,0-5,2,11.46,11.46,0,0,0-3.67,3.84,11.7,11.7,0,0,0-1.45,6.12,11.42,11.42,0,0,0,.71,4.19l.23.52a10.21,10.21,0,0,0,1.9,2.85,11.21,11.21,0,0,0,2.93,2.2,22.55,22.55,0,0,0,3.3,1.43,23.56,23.56,0,0,0,3.24.85l2.77.51c.82.18,1.62.33,2.41.43a13.61,13.61,0,0,1,2.07.43,4.82,4.82,0,0,1,1.42.67,1.31,1.31,0,0,1,.54,1.1,2.18,2.18,0,0,1-1.24,2,7.77,7.77,0,0,1-3.59.67,15.06,15.06,0,0,1-5.32-1.08,30.11,30.11,0,0,1-5.74-3,1.27,1.27,0,0,0-.84-.16l5.86,13.65c.32.07.62.16.94.22a27.49,27.49,0,0,0,5.2.46,24.84,24.84,0,0,0,6.26-.73,13.64,13.64,0,0,0,4.82-2.22,10.17,10.17,0,0,0,3.14-3.84A12.55,12.55,0,0,0,176.43,90,11,11,0,0,0,175.06,84.25Z"/>
      <path class="a" d="M312.23,81.38A12,12,0,0,1,314,82.56a8.93,8.93,0,0,1,2.76,4.08,9.29,9.29,0,0,1,.46,3.06,13.34,13.34,0,0,1-1.1,5.77,9.6,9.6,0,0,1-3,3.65,11.79,11.79,0,0,1-4.32,1.93,23,23,0,0,1-5.12.56h-17a1.2,1.2,0,0,1-.91-.38,1.22,1.22,0,0,1-.38-.91V63.62a1.3,1.3,0,0,1,1.29-1.29h16.2a21,21,0,0,1,4.94.57,11.66,11.66,0,0,1,4.16,1.85,9.64,9.64,0,0,1,2.9,3.35,10.73,10.73,0,0,1,1.1,5.07,7.3,7.3,0,0,1-1.21,4.19,11.36,11.36,0,0,1-2.6,2.79C311.48,80.61,311.52,81,312.23,81.38Zm-15-4.13h5a2.07,2.07,0,0,0,1.72-.83,3,3,0,0,0,.64-1.85,2.19,2.19,0,0,0-.77-1.67,2.29,2.29,0,0,0-1.48-.69h-5.1a1.23,1.23,0,0,0-.91.37,1.25,1.25,0,0,0-.37.91V76a1.28,1.28,0,0,0,1.28,1.29Zm5.64,8.85h-5.64A1.28,1.28,0,0,0,296,87.39v3.06a1.28,1.28,0,0,0,1.28,1.29h6a2.65,2.65,0,0,0,1.83-.81,2.5,2.5,0,0,0,.86-1.88,3,3,0,0,0-.84-2A2.72,2.72,0,0,0,302.9,86.1Z"/>
      <path class="a" d="M333.54,73.49v2.26a1.23,1.23,0,0,0,.37.91,1.25,1.25,0,0,0,.91.37h21.55a1.28,1.28,0,0,1,1.28,1.29v7.41a1.23,1.23,0,0,1-.37.91,1.25,1.25,0,0,1-.91.37H334.82a1.28,1.28,0,0,0-1.28,1.29v2a1.23,1.23,0,0,0,.37.91,1.22,1.22,0,0,0,.91.38h16.69a1.3,1.3,0,0,1,1.29,1.29v7.4a1.22,1.22,0,0,1-.38.91,1.2,1.2,0,0,1-.91.38H324.2a1.2,1.2,0,0,1-.91-.38,1.22,1.22,0,0,1-.38-.91V63.62a1.3,1.3,0,0,1,1.29-1.29h38.31a1.3,1.3,0,0,1,1.29,1.29v7.3a1.3,1.3,0,0,1-1.29,1.29H334.82a1.26,1.26,0,0,0-1.28,1.28Z"/>
      <path class="a" d="M374.94,63.57a2,2,0,0,1,.72-.84,1.93,1.93,0,0,1,1.1-.34h7.51a1.84,1.84,0,0,1,1.05.34,2,2,0,0,1,.72.84l15.67,36.48a1.1,1.1,0,0,1-.08,1,1.18,1.18,0,0,1-1.15.54H391.3a1.87,1.87,0,0,1-1.1-.35,2.46,2.46,0,0,1-.78-.83L388,97.21a2.46,2.46,0,0,0-.78-.83,1.86,1.86,0,0,0-1.05-.35H374.83A2.08,2.08,0,0,0,373,97.21l-1.51,3.22a2,2,0,0,1-.72.83,1.79,1.79,0,0,1-1,.35H360.5a1.47,1.47,0,0,1-.56-.11,1.1,1.1,0,0,1-.48-.32,1,1,0,0,1-.25-.54,1.26,1.26,0,0,1,.17-.75Zm3.16,23.34h4.78a.89.89,0,0,0,.78-.35.74.74,0,0,0,0-.83c-.36-.9-.79-1.94-1.29-3.14L381,79.23c-.15-.32-.31-.48-.49-.48s-.34.16-.48.48l-2.68,6.5a.82.82,0,0,0,0,.83A.87.87,0,0,0,378.1,86.91Z"/>
      <path class="a" d="M427.15,72.21h-7.51a1.26,1.26,0,0,0-1.29,1.28v26.83a1.28,1.28,0,0,1-.35.91,1.19,1.19,0,0,1-.94.38H409a1.2,1.2,0,0,1-.91-.38,1.22,1.22,0,0,1-.38-.91V73.49a1.27,1.27,0,0,0-.35-.91,1.2,1.2,0,0,0-.93-.37h-7.63a1.25,1.25,0,0,1-.91-.38,1.23,1.23,0,0,1-.37-.91v-7.3a1.23,1.23,0,0,1,.37-.91,1.25,1.25,0,0,1,.91-.38h28.34a1.24,1.24,0,0,1,.94.38,1.29,1.29,0,0,1,.35.91v7.3a1.29,1.29,0,0,1-.35.91A1.24,1.24,0,0,1,427.15,72.21Z"/>
      <path class="a" d="M456.76,101.61H426.39a1.26,1.26,0,0,1-1.29-1.28v-6a3.07,3.07,0,0,1,.27-1.18,4.63,4.63,0,0,1,.59-1.07l16.42-18.37a1.11,1.11,0,0,0,.21-.92c-.07-.32-.3-.48-.7-.48h-4.5a1.25,1.25,0,0,1-.92-.37,1.27,1.27,0,0,1-.37-.92V63.63a1.28,1.28,0,0,1,1.29-1.3h19.37a1.24,1.24,0,0,1,.94.38,1.29,1.29,0,0,1,.34.91v6.06a3.4,3.4,0,0,1-.24,1.18,4.54,4.54,0,0,1-.56,1.08L440.82,90.4a1,1,0,0,0-.21.88.57.57,0,0,0,.64.46h15.51a1.24,1.24,0,0,1,.94.37A1.31,1.31,0,0,1,458,93v7.29a1.27,1.27,0,0,1-.34.91A1.21,1.21,0,0,1,456.76,101.61Z"/>
    </g>
    <path class="a" d="M104.19,89l-6.06-2.38a1.26,1.26,0,0,0-1,0,1.6,1.6,0,0,0-.78.64,11,11,0,0,1-3.78,3.68,10.35,10.35,0,0,1-5.34,1.42,8.84,8.84,0,0,1-3.84-.86,10.81,10.81,0,0,1-3.14-2.26A10.18,10.18,0,0,1,78.12,86a10.44,10.44,0,0,1,0-7.77,10.41,10.41,0,0,1,2.09-3.31,10.54,10.54,0,0,1,3.14-2.29,8.84,8.84,0,0,1,3.84-.86A10.15,10.15,0,0,1,92.5,73a11.32,11.32,0,0,1,3.76,3.78,1.53,1.53,0,0,0,.8.64,1.33,1.33,0,0,0,1.07,0l7.62-3a1.15,1.15,0,0,0,.65-.7,1,1,0,0,0-.11-.91,32.71,32.71,0,0,0-3.41-4.53,19.13,19.13,0,0,0-9.31-5.77,23.24,23.24,0,0,0-6.38-.81,20.23,20.23,0,0,0-8,1.61,21.49,21.49,0,0,0-6.58,4.35,20,20,0,0,0-4.42,6.44,20.11,20.11,0,0,0,0,15.77,20,20,0,0,0,4.42,6.44,21.31,21.31,0,0,0,6.58,4.35,20.23,20.23,0,0,0,8,1.61,23.18,23.18,0,0,0,6.27-.8,20.33,20.33,0,0,0,5.18-2.24c.57-.35,1.1-.74,1.63-1.14Z"/>
  </g>
</svg>
